<svg width="62" height="9" viewBox="0 0 62 9" fill="none" xmlns="http://www.w3.org/2000/svg">
<path d="M9.43178 3.21503L6.45239 2.79251L5.1174 0.147892C5.08834 0.102625 5.04799 0.065307 5.00012 0.0394388C4.95226 0.0135706 4.89845 0 4.84374 0C4.78903 0 4.73522 0.0135706 4.68736 0.0394388C4.63949 0.065307 4.59914 0.102625 4.57009 0.147892L3.23509 2.79612L0.25694 3.21503C0.202988 3.2202 0.151669 3.2403 0.109014 3.27297C0.0663591 3.30564 0.0341407 3.34952 0.0161457 3.39946C-0.00184926 3.4494 -0.00487298 3.50331 0.00742994 3.55487C0.0197329 3.60642 0.0468512 3.65348 0.0855975 3.69051L2.24895 5.75492L1.73739 8.67039C1.73084 8.72413 1.73963 8.77859 1.76278 8.82777C1.78593 8.87694 1.82254 8.91891 1.86858 8.94905C1.91461 8.97919 1.96828 8.99632 2.02366 8.99855C2.07903 9.00078 2.13396 8.98802 2.18239 8.96169L4.84374 7.59424L7.50386 8.9629C7.55229 8.98923 7.60722 9.00198 7.66259 8.99975C7.71797 8.99752 7.77164 8.98039 7.81767 8.95025C7.86371 8.92012 7.90032 8.87815 7.92347 8.82897C7.94662 8.7798 7.95541 8.72533 7.94886 8.67159L7.43853 5.75492L9.60188 3.69051C9.64063 3.65348 9.66775 3.60642 9.68005 3.55487C9.69236 3.50331 9.68933 3.4494 9.67134 3.39946C9.65334 3.34952 9.62112 3.30564 9.57847 3.27297C9.53581 3.2403 9.48449 3.2202 9.43054 3.21503H9.43178Z" fill="#FF9F0D"/>
<path d="M22.9943 3.21503L20.0149 2.79251L18.6799 0.147892C18.6508 0.102625 18.6105 0.065307 18.5626 0.0394388C18.5148 0.0135706 18.4609 0 18.4062 0C18.3515 0 18.2977 0.0135706 18.2499 0.0394388C18.202 0.065307 18.1616 0.102625 18.1326 0.147892L16.7976 2.79612L13.8194 3.21503C13.7655 3.2202 13.7142 3.2403 13.6715 3.27297C13.6289 3.30564 13.5966 3.34952 13.5786 3.39946C13.5607 3.4494 13.5576 3.50331 13.5699 3.55487C13.5822 3.60642 13.6094 3.65348 13.6481 3.69051L15.8114 5.75492L15.2999 8.67039C15.2933 8.72413 15.3021 8.77859 15.3253 8.82777C15.3484 8.87694 15.385 8.91891 15.4311 8.94905C15.4771 8.97919 15.5308 8.99632 15.5862 8.99855C15.6415 9.00078 15.6965 8.98802 15.7449 8.96169L18.4062 7.59424L21.0664 8.9629C21.1148 8.98923 21.1697 9.00198 21.2251 8.99975C21.2805 8.99752 21.3341 8.98039 21.3802 8.95025C21.4262 8.92012 21.4628 8.87815 21.486 8.82897C21.5091 8.7798 21.5179 8.72533 21.5114 8.67159L21.001 5.75492L23.1644 3.69051C23.2031 3.65348 23.2302 3.60642 23.2425 3.55487C23.2548 3.50331 23.2518 3.4494 23.2338 3.39946C23.2158 3.34952 23.1836 3.30564 23.141 3.27297C23.0983 3.2403 23.047 3.2202 22.993 3.21503H22.9943Z" fill="#FF9F0D"/>
<path d="M35.5875 3.21503L32.6082 2.79251L31.2732 0.147892C31.2441 0.102625 31.2038 0.065307 31.1559 0.0394388C31.108 0.0135706 31.0542 0 30.9995 0C30.9448 0 30.891 0.0135706 30.8431 0.0394388C30.7953 0.065307 30.7549 0.102625 30.7258 0.147892L29.3909 2.79612L26.4127 3.21503C26.3588 3.2202 26.3074 3.2403 26.2648 3.27297C26.2221 3.30564 26.1899 3.34952 26.1719 3.39946C26.1539 3.4494 26.1509 3.50331 26.1632 3.55487C26.1755 3.60642 26.2026 3.65348 26.2414 3.69051L28.4047 5.75492L27.8931 8.67039C27.8866 8.72413 27.8954 8.77859 27.9185 8.82777C27.9417 8.87694 27.9783 8.91891 28.0243 8.94905C28.0704 8.97919 28.124 8.99632 28.1794 8.99855C28.2348 9.00078 28.2897 8.98802 28.3381 8.96169L30.9995 7.59424L33.6596 8.9629C33.708 8.98923 33.763 9.00198 33.8184 8.99975C33.8737 8.99752 33.9274 8.98039 33.9734 8.95025C34.0195 8.92012 34.0561 8.87815 34.0792 8.82897C34.1024 8.7798 34.1112 8.72533 34.1046 8.67159L33.5943 5.75492L35.7576 3.69051C35.7964 3.65348 35.8235 3.60642 35.8358 3.55487C35.8481 3.50331 35.8451 3.4494 35.8271 3.39946C35.8091 3.34952 35.7769 3.30564 35.7342 3.27297C35.6916 3.2403 35.6403 3.2202 35.5863 3.21503H35.5875Z" fill="#E0E0E0"/>
<path d="M48.1818 3.21503L45.2024 2.79251L43.8674 0.147892C43.8383 0.102625 43.798 0.065307 43.7501 0.0394388C43.7023 0.0135706 43.6484 0 43.5937 0C43.539 0 43.4852 0.0135706 43.4374 0.0394388C43.3895 0.065307 43.3491 0.102625 43.3201 0.147892L41.9851 2.79612L39.0069 3.21503C38.953 3.2202 38.9017 3.2403 38.859 3.27297C38.8164 3.30564 38.7841 3.34952 38.7661 3.39946C38.7482 3.4494 38.7451 3.50331 38.7574 3.55487C38.7697 3.60642 38.7969 3.65348 38.8356 3.69051L40.9989 5.75492L40.4874 8.67039C40.4808 8.72413 40.4896 8.77859 40.5128 8.82777C40.5359 8.87694 40.5725 8.91891 40.6186 8.94905C40.6646 8.97919 40.7183 8.99632 40.7737 8.99855C40.829 9.00078 40.884 8.98802 40.9324 8.96169L43.5937 7.59424L46.2539 8.9629C46.3023 8.98923 46.3572 9.00198 46.4126 8.99975C46.468 8.99752 46.5216 8.98039 46.5677 8.95025C46.6137 8.92012 46.6503 8.87815 46.6735 8.82897C46.6966 8.7798 46.7054 8.72533 46.6989 8.67159L46.1885 5.75492L48.3519 3.69051C48.3906 3.65348 48.4177 3.60642 48.43 3.55487C48.4423 3.50331 48.4393 3.4494 48.4213 3.39946C48.4033 3.34952 48.3711 3.30564 48.3285 3.27297C48.2858 3.2403 48.2345 3.2202 48.1805 3.21503H48.1818Z" fill="#E0E0E0"/>
<path d="M61.7443 3.21503L58.7649 2.79251L57.4299 0.147892C57.4008 0.102625 57.3605 0.065307 57.3126 0.0394388C57.2648 0.0135706 57.211 0 57.1562 0C57.1015 0 57.0477 0.0135706 56.9999 0.0394388C56.952 0.065307 56.9116 0.102625 56.8826 0.147892L55.5476 2.79612L52.5694 3.21503C52.5155 3.2202 52.4642 3.2403 52.4215 3.27297C52.3789 3.30564 52.3466 3.34952 52.3286 3.39946C52.3107 3.4494 52.3076 3.50331 52.3199 3.55487C52.3322 3.60642 52.3594 3.65348 52.3981 3.69051L54.5615 5.75492L54.0499 8.67039C54.0433 8.72413 54.0521 8.77859 54.0753 8.82777C54.0984 8.87694 54.135 8.91891 54.1811 8.94905C54.2271 8.97919 54.2808 8.99632 54.3362 8.99855C54.3915 9.00078 54.4465 8.98802 54.4949 8.96169L57.1562 7.59424L59.8164 8.9629C59.8648 8.98923 59.9197 9.00198 59.9751 8.99975C60.0305 8.99752 60.0841 8.98039 60.1302 8.95025C60.1762 8.92012 60.2128 8.87815 60.236 8.82897C60.2591 8.7798 60.2679 8.72533 60.2614 8.67159L59.751 5.75492L61.9144 3.69051C61.9531 3.65348 61.9803 3.60642 61.9926 3.55487C62.0049 3.50331 62.0018 3.4494 61.9838 3.39946C61.9658 3.34952 61.9336 3.30564 61.891 3.27297C61.8483 3.2403 61.797 3.2202 61.743 3.21503H61.7443Z" fill="#E0E0E0"/>
</svg>
